<?xml version="1.0" encoding="utf-8"?>
<!-- Generator: Adobe Illustrator 19.1.0, SVG Export Plug-In . SVG Version: 6.00 Build 0)  -->
<svg version="1.1" id="RW_BW" xmlns="http://www.w3.org/2000/svg" xmlns:xlink="http://www.w3.org/1999/xlink" x="0px" y="0px"
	 viewBox="0 0 492.8 92.9" style="enable-background:new 0 0 492.8 92.9;" xml:space="preserve">
<style type="text/css">
	.st0{fill:#FFFFFF;}
</style>
<path class="st0" d="M60.2,1.7H116c24.8,0,32,3.9,26.2,11.2c-4.7,5.8-15.2,8.6-27.1,10L115,23c11.3,0.4,20,3.3,14.1,10.7
	c-2.7,3.3-7.3,6.1-12.2,7.8c-7.2,2.4-13.3,3.3-30.9,3.3H25.8L60.2,1.7z M64.9,35.2h12.5c11.1,0,15.7-1.1,18.4-4.4
	c2.7-3.3,0.2-5-10.9-5l-12.2,0.1L64.9,35.2z M78.1,18.6h11.8c9.3,0,13.6-1.9,15.7-4.6c2.3-2.8,1.7-3.9-8.3-3.9l-12-0.1L78.1,18.6z"
	/>
<path class="st0" d="M167.2,1.7H217l4.4,28.9h0.3l21.7-28.9H274l-34,43.1h-48.2l-4.2-30.7h0.4l-24.2,30.7h-30.6L167.2,1.7z"/>
<path class="st0" d="M301.3,30.9c-1.8,2.4-0.6,3.9,0.7,5c1.4,1.1,5.1,2,9.6,2c6.2,0,15.2-0.9,17-3.1c0.6-0.8,0.1-2.7-0.3-3.2
	c-2.4-2.7-39.8-4.8-46.8-9.8c-2.8-2-1.7-5.1,0.2-7.5C289.3,4.8,308.8,0,341.5,0c34.7,0,41.4,5.6,34.8,14.5h-32.6
	c1.7-2.4,0.8-4.1-0.9-5c-1.7-0.9-5-1.4-9.3-1.4c-7.2,0-12.8,0.9-14.5,3.1c-0.5,0.7-0.5,2.5,0.1,3c3.2,2.7,39.4,4.6,46.2,9.7
	c2,1.5,3.4,3.8,0.1,8c-6.8,8.5-25.1,14.4-62.3,14.4c-44.3,0-41.2-7.3-35.5-15.3H301.3z"/>
<path class="st0" d="M405.4,1.7h75.1l-8.2,9.8h-39.7l-7.2,8.2h38.7l-7.4,9.4H418l-12.9,15.7H371L405.4,1.7z"/>
<polygon class="st0" points="439,56.6 0,77.2 18.8,53.5 441.5,53.5 "/>
<path class="st0" d="M237,74l11.3,0c4.1,0,5.6,2.1,3.7,5.1c-2.3,3.3-4.4,4.6-8.7,4.9l0,0.1c4.2,0.2,3.1,2.1,0.9,5.7
	c-1,1.6-1.5,2.6-1.8,3.3l-4.5,0c0.2-0.6,1-1.9,1.7-3c2.5-3.7,2.2-4.5-2-4.5l-3.9,0l-5.3,7.5l-4.8,0L237,74z M236,81.9l4.4,0
	c3.2,0,5.3-0.4,7.2-2.3c1.4-2.1,0.4-3.2-2.7-3l-5.4,0L236,81.9z"/>
<path class="st0" d="M273.3,73.8l6.9,0l-3.8,19l-5,0l0.8-4.3l-10.9,0l-5,4.3l-6.1,0L273.3,73.8z M272.9,85.5l1.9-8.3l-9.8,8.3
	L272.9,85.5z"/>
<path class="st0" d="M386.1,73.6l7,0l-3.8,19.3l-5,0l0.9-4.3l-10.9,0l-5,4.3l-6.2,0L386.1,73.6z M385.8,85.4l1.9-8.4l-9.8,8.4
	L385.8,85.4z"/>
<path class="st0" d="M298.4,73.7l5.2,0l-13.4,19.1l-5.2,0L298.4,73.7z"/>
<path class="st0" d="M317,73.6l4.6,0L310.8,89l10.4,0l-2.7,3.8l-14.9,0L317,73.6z"/>
<path class="st0" d="M350.9,73.4l5.3,0l-5.4,14.9h0.1l15.4-14.9l4.2,0l-19.9,19.4H345l5.6-15.4h-0.1l-15.7,15.4l-5.2,0l6.8-19.2
	l4.5,0l-5.5,14.9h0.1L350.9,73.4z"/>
<path class="st0" d="M427.8,73.4l-16.6,11.8l-5.2,7.5l-5.1,0l5.3-7.5l-0.9-11.7l5.5-0.1l0.3,7.2l9.7-7.3L427.8,73.4z"/>
<polygon class="st0" points="354.8,73.4 350,73.4 333.9,89 331.6,92.5 335,92.5 "/>
<polygon class="st0" points="370.4,73.4 365.3,73.4 349.2,89 347.1,92.5 350.6,92.5 "/>
<g>
	<path class="st0" d="M488.4,1.8c0.7,0,1.5,0.2,2.2,0.6c0.7,0.4,1.3,0.9,1.7,1.6c0.4,0.7,0.6,1.4,0.6,2.2c0,0.8-0.2,1.5-0.6,2.2
		c-0.4,0.7-0.9,1.2-1.6,1.6c-0.7,0.4-1.4,0.6-2.2,0.6c-0.8,0-1.5-0.2-2.2-0.6c-0.7-0.4-1.2-0.9-1.6-1.6c-0.4-0.7-0.6-1.4-0.6-2.2
		c0-0.8,0.2-1.5,0.6-2.2c0.4-0.7,0.9-1.3,1.7-1.6C487,1.9,487.7,1.8,488.4,1.8z M488.4,2.5c-0.6,0-1.2,0.2-1.8,0.5
		c-0.6,0.3-1,0.8-1.4,1.4c-0.3,0.6-0.5,1.2-0.5,1.9c0,0.6,0.2,1.2,0.5,1.8c0.3,0.6,0.8,1,1.4,1.4c0.6,0.3,1.2,0.5,1.8,0.5
		c0.6,0,1.2-0.2,1.8-0.5c0.6-0.3,1-0.8,1.4-1.4c0.3-0.6,0.5-1.2,0.5-1.8c0-0.6-0.2-1.3-0.5-1.9c-0.3-0.6-0.8-1-1.4-1.4
		C489.6,2.7,489,2.5,488.4,2.5z M486.5,8.6V3.9h1.6c0.6,0,1,0,1.2,0.1c0.3,0.1,0.5,0.2,0.6,0.5c0.1,0.2,0.2,0.5,0.2,0.7
		c0,0.3-0.1,0.7-0.4,0.9s-0.6,0.4-1,0.4c0.2,0.1,0.3,0.2,0.4,0.3c0.2,0.2,0.4,0.5,0.7,0.9l0.6,0.9h-0.9l-0.4-0.8
		c-0.3-0.6-0.6-1-0.8-1.1c-0.1-0.1-0.3-0.2-0.6-0.2h-0.5v2H486.5z M487.2,6h0.9c0.4,0,0.8-0.1,0.9-0.2c0.2-0.1,0.2-0.3,0.2-0.5
		c0-0.1,0-0.3-0.1-0.4c-0.1-0.1-0.2-0.2-0.3-0.2c-0.1-0.1-0.4-0.1-0.8-0.1h-0.9V6z"/>
</g>
</svg>
